{"title":"Ki &amp; Ka (2016) 1CD DvDrip XviD MP3 MSubs -DDR","uid":14778644,"size":731837617,"categoryP":"video","categoryS":"movies","magnet":"?xt=urn:btih:5bc3f603f1667fc90b011f6ada0429b964d4bfc4&amp;dn=Ki+%26amp%3B+Ka+%282016%29+1CD+DvDrip+XviD+MP3+MSubs+-DDR&amp;tr=udp%3A%2F%2Ftracker.leechers-paradise.org%3A6969&amp;tr=udp%3A%2F%2Fzer0day.ch%3A1337&amp;tr=udp%3A%2F%2Fopen.demonii.com%3A1337&amp;tr=udp%3A%2F%2Ftracker.coppersurfer.tk%3A6969&amp;tr=udp%3A%2F%2Fexodus.desync.com%3A6969","seeders":14,"leechers":2,"uploader":"SaM","files":4,"time":1464971646,"description":"- BollywooD MoviE -\r\n**- KI &amp; KA -**\r\n- 2016 -\r\n** 1CD / XviD / MP3 **\r\nEnglish &amp; Arabic subtitle(s)\r\n\r\n~* SCREENSHOTS *~ \r\n \nhttp://extraimago.com/image/aZZu \nhttp://extraimago.com/image/aZZV \nhttp://extraimago.com/image/aZZ6 \nhttp://extraimago.com/image/aZZx \nhttp://extraimago.com/image/aZZt \nhttp://extraimago.com/image/aZZo \nhttp://extraimago.com/image/aZZk \nhttp://extraimago.com/image/aZZH \nhttp://extraimago.com/image/aZZF \nhttp://extraimago.com/image/aZZD \nhttp://extraimago.com/image/aZZ5 \nhttp://extraimago.com/image/aZZg\r\n\r\n[ Specs ]\r\nGeneral\r\nSource = DVD9 @ ICTV\r\nFormat : AVI\r\nFile size : 694 MiB\r\nDuration : 2h 3mn\r\nOverall bit rate mode : Variable\r\nOverall bit rate : 786 Kbps\r\n\r\nVideo\r\nFormat : MPEG-4 Visual\r\nFormat profile : Advanced   \r\nFormat settings, BVOP : 2\r\nFormat settings, QPel : No\r\nFormat settings, GMC : No warppoints\r\nFormat settings, Matrix : Custom\r\nCodec ID : XVID\r\nDuration : 2h 3mn\r\nBit rate : 698 Kbps\r\nWidth : 640 pixels\r\nHeight : 272 pixels\r\nDisplay aspect ratio : 2.35:1\r\nFrame rate : 23.976 (24000/1001) fps\r\ncolor space : YUV\r\nChroma subsampling : 4:2:0\r\nBit depth : 8 bits\r\nScan type : Progressive\r\nCompression mode : Lossy\r\nBits/(Pixel*Frame) : 0.167\r\nStream size : 616 MiB (89%)\r\nWriting library : XviD 67\r\n\r\nAudio #1\r\nFormat : MPEG Audio\r\nFormat version : Version 1\r\nFormat profile : Layer 3\r\nMode : Joint stereo\r\nMode extension : MS Stereo\r\nCodec ID : 55\r\nCodec ID/Hint : MP3\r\nDuration : 2h 3mn\r\nBit rate mode : Variable\r\nBit rate : 80.0 Kbps\r\nChannel(s) : 2 channels\r\nSampling rate : 32.0 KHz\r\nCompression mode : Lossy\r\nStream size : 68.9 MiB (10%)\r\n\r\nChapters: YES\r\nSample: YES - included\r\n\r\nA DDR Exclusive Release...!","torrent":{"xt":"urn:btih:5bc3f603f1667fc90b011f6ada0429b964d4bfc4","amp;dn":"Ki+%26amp%3B+Ka+%282016%29+1CD+DvDrip+XviD+MP3+MSubs+-DDR","amp;tr":["udp%3A%2F%2Ftracker.leechers-paradise.org%3A6969","udp%3A%2F%2Fzer0day.ch%3A1337","udp%3A%2F%2Fopen.demonii.com%3A1337","udp%3A%2F%2Ftracker.coppersurfer.tk%3A6969","udp%3A%2F%2Fexodus.desync.com%3A6969"],"infoHash":"5bc3f603f1667fc90b011f6ada0429b964d4bfc4","infoHashBuffer":{"type":"Buffer","data":[91,195,246,3,241,102,127,201,11,1,31,106,218,4,41,185,100,212,191,196]},"announce":[],"urlList":[]}}